<svg xmlns="http://www.w3.org/2000/svg" xmlns:xlink="http://www.w3.org/1999/xlink" width="158" zoomAndPan="magnify" viewBox="0 0 118.5 48.75" height="65" preserveAspectRatio="xMidYMid meet" version="1.0"><defs><g/><clipPath id="29c07fdafa"><path d="M 1.992188 10.445312 L 4.0625 10.445312 L 4.0625 19.027344 L 1.992188 19.027344 Z M 1.992188 10.445312 " clip-rule="nonzero"/></clipPath><clipPath id="b5141f78d2"><path d="M 1.992188 10.445312 L 10.574219 10.445312 L 10.574219 12.515625 L 1.992188 12.515625 Z M 1.992188 10.445312 " clip-rule="nonzero"/></clipPath><clipPath id="a65a6b01aa"><path d="M 113.351562 27.761719 L 115.421875 27.761719 L 115.421875 36.34375 L 113.351562 36.34375 Z M 113.351562 27.761719 " clip-rule="nonzero"/></clipPath><clipPath id="15bdaf2ede"><path d="M 106.839844 34.273438 L 115.421875 34.273438 L 115.421875 36.34375 L 106.839844 36.34375 Z M 106.839844 34.273438 " clip-rule="nonzero"/></clipPath></defs><g fill="#ffffff" fill-opacity="1"><g transform="translate(7.363739, 30.904274)"><g><path d="M 8.140625 -5 L 8.140625 0 L 5.625 0 L 5.625 -4.921875 L 0.015625 -15.03125 L 2.578125 -15.03125 L 6.875 -7.703125 L 11.078125 -15.03125 L 13.65625 -15.03125 Z M 8.140625 -5 "/></g></g></g><g fill="#ffffff" fill-opacity="1"><g transform="translate(21.03642, 30.904274)"><g><path d="M 6.71875 -11.5 C 7.875 -11.5 8.898438 -11.253906 9.796875 -10.765625 C 10.703125 -10.285156 11.40625 -9.609375 11.90625 -8.734375 C 12.414062 -7.859375 12.671875 -6.859375 12.671875 -5.734375 C 12.671875 -4.585938 12.414062 -3.570312 11.90625 -2.6875 C 11.40625 -1.8125 10.703125 -1.128906 9.796875 -0.640625 C 8.898438 -0.160156 7.875 0.078125 6.71875 0.078125 C 5.539062 0.078125 4.5 -0.160156 3.59375 -0.640625 C 2.695312 -1.128906 2 -1.8125 1.5 -2.6875 C 1 -3.570312 0.75 -4.585938 0.75 -5.734375 C 0.75 -6.859375 1 -7.859375 1.5 -8.734375 C 2 -9.609375 2.695312 -10.285156 3.59375 -10.765625 C 4.5 -11.253906 5.539062 -11.5 6.71875 -11.5 Z M 6.71875 -9.40625 C 5.6875 -9.40625 4.84375 -9.054688 4.1875 -8.359375 C 3.539062 -7.671875 3.21875 -6.78125 3.21875 -5.6875 C 3.21875 -4.582031 3.539062 -3.6875 4.1875 -3 C 4.84375 -2.3125 5.6875 -1.96875 6.71875 -1.96875 C 7.75 -1.96875 8.585938 -2.3125 9.234375 -3 C 9.878906 -3.6875 10.203125 -4.582031 10.203125 -5.6875 C 10.203125 -6.78125 9.875 -7.671875 9.21875 -8.359375 C 8.570312 -9.054688 7.738281 -9.40625 6.71875 -9.40625 Z M 6.71875 -9.40625 "/></g></g></g><g fill="#ffffff" fill-opacity="1"><g transform="translate(34.451533, 30.904274)"><g><path d="M 12.1875 -11.421875 L 12.1875 0 L 9.71875 0 L 9.71875 -2.234375 C 8.976562 -0.710938 7.617188 0.0546875 5.640625 0.078125 C 4.335938 0.078125 3.3125 -0.3125 2.5625 -1.09375 C 1.820312 -1.882812 1.453125 -2.957031 1.453125 -4.3125 L 1.453125 -11.421875 L 3.921875 -11.421875 L 3.921875 -5 C 3.921875 -4.144531 4.15625 -3.46875 4.625 -2.96875 C 5.101562 -2.476562 5.757812 -2.234375 6.59375 -2.234375 C 7.550781 -2.242188 8.3125 -2.582031 8.875 -3.25 C 9.4375 -3.914062 9.71875 -4.765625 9.71875 -5.796875 L 9.71875 -11.421875 Z M 12.1875 -11.421875 "/></g></g></g><g fill="#fb923c" fill-opacity="1"><g transform="translate(48.473232, 30.904274)"><g><path d="M 12.703125 -15.03125 L 12.703125 -12.75 L 4.515625 -12.75 L 4.515625 -8.671875 L 11.84375 -8.671875 L 11.84375 -6.421875 L 4.515625 -6.421875 L 4.515625 -2.28125 L 12.96875 -2.28125 L 12.96875 0 L 1.96875 0 L 1.96875 -15.03125 Z M 12.703125 -15.03125 "/></g></g></g><g fill="#fb923c" fill-opacity="1"><g transform="translate(62.553738, 30.904274)"><g><path d="M 2.59375 -11.421875 L 5.78125 -2.421875 L 8.90625 -11.421875 L 11.375 -11.421875 L 7 0 L 4.4375 0 L 0.015625 -11.421875 Z M 2.59375 -11.421875 "/></g></g></g><g fill="#fb923c" fill-opacity="1"><g transform="translate(73.82243, 30.904274)"><g><path d="M 6.53125 -11.5 C 8.332031 -11.5 9.679688 -10.988281 10.578125 -9.96875 C 11.472656 -8.957031 11.921875 -7.53125 11.921875 -5.6875 C 11.921875 -5.5 11.90625 -5.191406 11.875 -4.765625 L 3.234375 -4.765625 C 3.441406 -3.878906 3.859375 -3.179688 4.484375 -2.671875 C 5.117188 -2.160156 5.882812 -1.90625 6.78125 -1.90625 C 7.394531 -1.90625 7.976562 -2.019531 8.53125 -2.25 C 9.09375 -2.476562 9.582031 -2.804688 10 -3.234375 L 11.3125 -1.84375 C 10.738281 -1.226562 10.050781 -0.753906 9.25 -0.421875 C 8.445312 -0.0859375 7.5625 0.078125 6.59375 0.078125 C 5.4375 0.078125 4.414062 -0.160156 3.53125 -0.640625 C 2.65625 -1.128906 1.972656 -1.8125 1.484375 -2.6875 C 0.992188 -3.5625 0.75 -4.5625 0.75 -5.6875 C 0.75 -6.820312 0.992188 -7.828125 1.484375 -8.703125 C 1.972656 -9.585938 2.65625 -10.273438 3.53125 -10.765625 C 4.414062 -11.253906 5.414062 -11.5 6.53125 -11.5 Z M 9.71875 -6.5625 C 9.675781 -7.476562 9.367188 -8.203125 8.796875 -8.734375 C 8.222656 -9.265625 7.472656 -9.53125 6.546875 -9.53125 C 5.648438 -9.53125 4.898438 -9.265625 4.296875 -8.734375 C 3.691406 -8.203125 3.328125 -7.476562 3.203125 -6.5625 Z M 9.71875 -6.5625 "/></g></g></g><g fill="#fb923c" fill-opacity="1"><g transform="translate(86.443368, 30.904274)"><g><path d="M 8.5 -11.5 C 9.832031 -11.5 10.875 -11.109375 11.625 -10.328125 C 12.375 -9.554688 12.75 -8.484375 12.75 -7.109375 L 12.75 0 L 10.28125 0 L 10.28125 -6.421875 C 10.28125 -7.273438 10.035156 -7.945312 9.546875 -8.4375 C 9.066406 -8.9375 8.394531 -9.1875 7.53125 -9.1875 C 6.613281 -9.175781 5.863281 -8.882812 5.28125 -8.3125 C 4.707031 -7.738281 4.378906 -6.992188 4.296875 -6.078125 L 4.296875 0 L 1.828125 0 L 1.828125 -11.421875 L 4.296875 -11.421875 L 4.296875 -9.234375 C 5.066406 -10.742188 6.46875 -11.5 8.5 -11.5 Z M 8.5 -11.5 "/></g></g></g><g fill="#fb923c" fill-opacity="1"><g transform="translate(100.674119, 30.904274)"><g><path d="M 8.28125 -0.734375 C 7.34375 -0.171875 6.40625 0.109375 5.46875 0.109375 C 4.539062 0.109375 3.773438 -0.164062 3.171875 -0.71875 C 2.578125 -1.28125 2.28125 -2.113281 2.28125 -3.21875 L 2.28125 -9.140625 L 0.671875 -9.140625 L 0.671875 -10.984375 L 2.28125 -10.984375 L 2.28125 -14.125 L 4.71875 -14.125 L 4.71875 -10.984375 L 8.09375 -10.984375 L 8.09375 -9.140625 L 4.71875 -9.140625 L 4.71875 -3.671875 C 4.71875 -3.097656 4.816406 -2.695312 5.015625 -2.46875 C 5.222656 -2.238281 5.535156 -2.125 5.953125 -2.125 C 6.410156 -2.125 6.984375 -2.289062 7.671875 -2.625 Z M 8.28125 -0.734375 "/></g></g></g><g clip-path="url(#29c07fdafa)"><path fill="#ffffff" d="M 1.992188 10.445312 L 4.0625 10.445312 L 4.0625 19.03125 L 1.992188 19.03125 Z M 1.992188 10.445312 " fill-opacity="1" fill-rule="nonzero"/></g><g clip-path="url(#b5141f78d2)"><path fill="#ffffff" d="M 1.992188 12.515625 L 1.992188 10.445312 L 10.578125 10.445312 L 10.578125 12.515625 Z M 1.992188 12.515625 " fill-opacity="1" fill-rule="nonzero"/></g><g clip-path="url(#a65a6b01aa)"><path fill="#ffffff" d="M 115.421875 36.34375 L 113.351562 36.34375 L 113.351562 27.757812 L 115.421875 27.757812 Z M 115.421875 36.34375 " fill-opacity="1" fill-rule="nonzero"/></g><g clip-path="url(#15bdaf2ede)"><path fill="#ffffff" d="M 115.421875 34.273438 L 115.421875 36.34375 L 106.835938 36.34375 L 106.835938 34.273438 Z M 115.421875 34.273438 " fill-opacity="1" fill-rule="nonzero"/></g></svg>