<svg xmlns="http://www.w3.org/2000/svg" xmlns:xlink="http://www.w3.org/1999/xlink" width="158" zoomAndPan="magnify" viewBox="0 0 118.5 48.75" height="65" preserveAspectRatio="xMidYMid meet" version="1.0"><defs><g/><clipPath id="a319e29492"><path d="M 1.992188 10.445312 L 4.0625 10.445312 L 4.0625 19.027344 L 1.992188 19.027344 Z M 1.992188 10.445312 " clip-rule="nonzero"/></clipPath><clipPath id="3c9fb63c93"><path d="M 1.992188 10.445312 L 10.574219 10.445312 L 10.574219 12.515625 L 1.992188 12.515625 Z M 1.992188 10.445312 " clip-rule="nonzero"/></clipPath><clipPath id="77e4750ab0"><path d="M 113.351562 27.761719 L 115.421875 27.761719 L 115.421875 36.34375 L 113.351562 36.34375 Z M 113.351562 27.761719 " clip-rule="nonzero"/></clipPath><clipPath id="c5869d0262"><path d="M 106.839844 34.273438 L 115.421875 34.273438 L 115.421875 36.34375 L 106.839844 36.34375 Z M 106.839844 34.273438 " clip-rule="nonzero"/></clipPath></defs><g fill="#000000" fill-opacity="1"><g transform="translate(7.380725, 31.348984)"><g><path d="M 8.125 -5 L 8.125 0 L 5.625 0 L 5.625 -4.90625 L 0.015625 -15.015625 L 2.578125 -15.015625 L 6.859375 -7.703125 L 11.0625 -15.015625 L 13.640625 -15.015625 Z M 8.125 -5 "/></g></g></g><g fill="#000000" fill-opacity="1"><g transform="translate(21.047694, 31.348984)"><g><path d="M 6.71875 -11.5 C 7.875 -11.5 8.898438 -11.253906 9.796875 -10.765625 C 10.703125 -10.285156 11.40625 -9.609375 11.90625 -8.734375 C 12.40625 -7.859375 12.65625 -6.859375 12.65625 -5.734375 C 12.65625 -4.585938 12.40625 -3.570312 11.90625 -2.6875 C 11.40625 -1.8125 10.703125 -1.128906 9.796875 -0.640625 C 8.898438 -0.160156 7.875 0.078125 6.71875 0.078125 C 5.539062 0.078125 4.5 -0.160156 3.59375 -0.640625 C 2.695312 -1.128906 2 -1.8125 1.5 -2.6875 C 1 -3.570312 0.75 -4.585938 0.75 -5.734375 C 0.75 -6.859375 1 -7.859375 1.5 -8.734375 C 2 -9.609375 2.695312 -10.285156 3.59375 -10.765625 C 4.5 -11.253906 5.539062 -11.5 6.71875 -11.5 Z M 6.71875 -9.390625 C 5.6875 -9.390625 4.84375 -9.039062 4.1875 -8.34375 C 3.539062 -7.65625 3.21875 -6.769531 3.21875 -5.6875 C 3.21875 -4.582031 3.539062 -3.6875 4.1875 -3 C 4.84375 -2.3125 5.6875 -1.96875 6.71875 -1.96875 C 7.75 -1.96875 8.582031 -2.3125 9.21875 -3 C 9.863281 -3.6875 10.1875 -4.582031 10.1875 -5.6875 C 10.1875 -6.769531 9.859375 -7.65625 9.203125 -8.34375 C 8.554688 -9.039062 7.726562 -9.390625 6.71875 -9.390625 Z M 6.71875 -9.390625 "/></g></g></g><g fill="#000000" fill-opacity="1"><g transform="translate(34.457194, 31.348984)"><g><path d="M 12.1875 -11.40625 L 12.1875 0 L 9.71875 0 L 9.71875 -2.234375 C 8.976562 -0.710938 7.617188 0.0546875 5.640625 0.078125 C 4.335938 0.078125 3.3125 -0.3125 2.5625 -1.09375 C 1.820312 -1.882812 1.453125 -2.957031 1.453125 -4.3125 L 1.453125 -11.40625 L 3.921875 -11.40625 L 3.921875 -5 C 3.921875 -4.144531 4.15625 -3.46875 4.625 -2.96875 C 5.101562 -2.476562 5.757812 -2.234375 6.59375 -2.234375 C 7.550781 -2.242188 8.3125 -2.582031 8.875 -3.25 C 9.4375 -3.914062 9.71875 -4.765625 9.71875 -5.796875 L 9.71875 -11.40625 Z M 12.1875 -11.40625 "/></g></g></g><g fill="#fb923c" fill-opacity="1"><g transform="translate(48.479644, 31.348984)"><g><path d="M 12.703125 -15.015625 L 12.703125 -12.75 L 4.5 -12.75 L 4.5 -8.671875 L 11.84375 -8.671875 L 11.84375 -6.421875 L 4.5 -6.421875 L 4.5 -2.28125 L 12.953125 -2.28125 L 12.953125 0 L 1.96875 0 L 1.96875 -15.015625 Z M 12.703125 -15.015625 "/></g></g></g><g fill="#fb923c" fill-opacity="1"><g transform="translate(62.554264, 31.348984)"><g><path d="M 2.59375 -11.40625 L 5.765625 -2.421875 L 8.90625 -11.40625 L 11.375 -11.40625 L 7 0 L 4.4375 0 L 0.015625 -11.40625 Z M 2.59375 -11.40625 "/></g></g></g><g fill="#fb923c" fill-opacity="1"><g transform="translate(73.818245, 31.348984)"><g><path d="M 6.515625 -11.5 C 8.316406 -11.5 9.664062 -10.988281 10.5625 -9.96875 C 11.457031 -8.957031 11.90625 -7.53125 11.90625 -5.6875 C 11.90625 -5.5 11.890625 -5.191406 11.859375 -4.765625 L 3.234375 -4.765625 C 3.441406 -3.878906 3.859375 -3.179688 4.484375 -2.671875 C 5.109375 -2.160156 5.875 -1.90625 6.78125 -1.90625 C 7.394531 -1.90625 7.976562 -2.019531 8.53125 -2.25 C 9.09375 -2.476562 9.582031 -2.804688 10 -3.234375 L 11.3125 -1.84375 C 10.738281 -1.226562 10.050781 -0.753906 9.25 -0.421875 C 8.445312 -0.0859375 7.5625 0.078125 6.59375 0.078125 C 5.425781 0.078125 4.398438 -0.160156 3.515625 -0.640625 C 2.640625 -1.128906 1.957031 -1.804688 1.46875 -2.671875 C 0.988281 -3.546875 0.75 -4.550781 0.75 -5.6875 C 0.75 -6.8125 0.988281 -7.8125 1.46875 -8.6875 C 1.957031 -9.570312 2.640625 -10.257812 3.515625 -10.75 C 4.398438 -11.25 5.398438 -11.5 6.515625 -11.5 Z M 9.71875 -6.5625 C 9.675781 -7.476562 9.367188 -8.203125 8.796875 -8.734375 C 8.222656 -9.265625 7.472656 -9.53125 6.546875 -9.53125 C 5.640625 -9.53125 4.882812 -9.265625 4.28125 -8.734375 C 3.6875 -8.203125 3.328125 -7.476562 3.203125 -6.5625 Z M 9.71875 -6.5625 "/></g></g></g><g fill="#fb923c" fill-opacity="1"><g transform="translate(86.433901, 31.348984)"><g><path d="M 8.5 -11.5 C 9.820312 -11.5 10.859375 -11.109375 11.609375 -10.328125 C 12.367188 -9.546875 12.75 -8.46875 12.75 -7.09375 L 12.75 0 L 10.28125 0 L 10.28125 -6.421875 C 10.28125 -7.273438 10.035156 -7.945312 9.546875 -8.4375 C 9.054688 -8.9375 8.382812 -9.1875 7.53125 -9.1875 C 6.613281 -9.164062 5.863281 -8.867188 5.28125 -8.296875 C 4.707031 -7.722656 4.378906 -6.984375 4.296875 -6.078125 L 4.296875 0 L 1.828125 0 L 1.828125 -11.40625 L 4.296875 -11.40625 L 4.296875 -9.21875 C 5.066406 -10.738281 6.46875 -11.5 8.5 -11.5 Z M 8.5 -11.5 "/></g></g></g><g fill="#fb923c" fill-opacity="1"><g transform="translate(100.658703, 31.348984)"><g><path d="M 8.28125 -0.734375 C 7.332031 -0.171875 6.394531 0.109375 5.46875 0.109375 C 4.539062 0.109375 3.773438 -0.164062 3.171875 -0.71875 C 2.578125 -1.28125 2.28125 -2.113281 2.28125 -3.21875 L 2.28125 -9.140625 L 0.671875 -9.140625 L 0.671875 -10.984375 L 2.28125 -10.984375 L 2.28125 -14.109375 L 4.71875 -14.109375 L 4.71875 -10.984375 L 8.09375 -10.984375 L 8.09375 -9.140625 L 4.71875 -9.140625 L 4.71875 -3.671875 C 4.71875 -3.097656 4.816406 -2.695312 5.015625 -2.46875 C 5.222656 -2.238281 5.53125 -2.125 5.9375 -2.125 C 6.394531 -2.125 6.96875 -2.289062 7.65625 -2.625 Z M 8.28125 -0.734375 "/></g></g></g><g clip-path="url(#a319e29492)"><path fill="#000000" d="M 1.992188 10.445312 L 4.0625 10.445312 L 4.0625 19.03125 L 1.992188 19.03125 Z M 1.992188 10.445312 " fill-opacity="1" fill-rule="nonzero"/></g><g clip-path="url(#3c9fb63c93)"><path fill="#000000" d="M 1.992188 12.515625 L 1.992188 10.445312 L 10.578125 10.445312 L 10.578125 12.515625 Z M 1.992188 12.515625 " fill-opacity="1" fill-rule="nonzero"/></g><g clip-path="url(#77e4750ab0)"><path fill="#000000" d="M 115.421875 36.34375 L 113.351562 36.34375 L 113.351562 27.757812 L 115.421875 27.757812 Z M 115.421875 36.34375 " fill-opacity="1" fill-rule="nonzero"/></g><g clip-path="url(#c5869d0262)"><path fill="#000000" d="M 115.421875 34.273438 L 115.421875 36.34375 L 106.835938 36.34375 L 106.835938 34.273438 Z M 115.421875 34.273438 " fill-opacity="1" fill-rule="nonzero"/></g></svg>