<svg xmlns="http://www.w3.org/2000/svg" xmlns:xlink="http://www.w3.org/1999/xlink" width="512" zoomAndPan="magnify" viewBox="0 0 384 383.999986" height="512" preserveAspectRatio="xMidYMid meet" version="1.0"><defs><clipPath id="a2f2473958"><path d="M 8.1875 8.1875 L 375.6875 8.1875 L 375.6875 375.6875 L 8.1875 375.6875 Z M 8.1875 8.1875 " clip-rule="nonzero"/></clipPath></defs><g clip-path="url(#a2f2473958)"><path fill="#f97316" d="M 375.800781 191.996094 C 375.800781 293.511719 293.511719 375.800781 191.996094 375.800781 C 90.484375 375.800781 8.195312 293.511719 8.195312 191.996094 C 8.195312 90.484375 90.484375 8.191406 191.996094 8.191406 C 293.511719 8.191406 375.800781 90.484375 375.800781 191.996094 " fill-opacity="1" fill-rule="nonzero"/></g><path fill="#ffffff" d="M 257.289062 133.894531 C 257.289062 170.082031 227.949219 199.417969 191.761719 199.417969 C 155.574219 199.417969 126.234375 170.082031 126.234375 133.894531 C 126.234375 97.703125 155.574219 68.367188 191.761719 68.367188 C 227.949219 68.367188 257.289062 97.703125 257.289062 133.894531 " fill-opacity="1" fill-rule="nonzero"/><path fill="#ffffff" d="M 191.761719 367.078125 C 238.128906 367.078125 280.484375 349.898438 312.820312 321.570312 C 302.78125 256.023438 273.222656 210.539062 191.761719 210.539062 C 112.589844 210.539062 81.941406 256.21875 71.175781 321.988281 C 103.453125 350.070312 145.621094 367.078125 191.761719 367.078125 " fill-opacity="1" fill-rule="nonzero"/></svg>